<?xml version="1.0"?>
<svg xmlns="http://www.w3.org/2000/svg" id="Layer_3" enable-background="new 0 0 64 64" height="512px" viewBox="0 0 64 64" width="512px" class=""><g><g><path d="m56 54.913c3.94-.618 7-4.823 7-9.913 0-5.514-3.589-10-8-10-1.061 0-2.073.265-3 .736v-33.736c0-.552-.447-1-1-1h-38c-.553 0-1 .448-1 1v33.736c-.927-.471-1.939-.736-3-.736-4.411 0-8 4.486-8 10 0 5.09 3.06 9.295 7 9.913v6.087h-7v2h62v-2h-7zm-23 .087h6v6h-6zm-2 6h-6v-6h6zm9-8h-16c-.553 0-1 .448-1 1v7h-9v-8.206c.52-.522.983-1.127 1.385-1.794h33.23c.402.667.865 1.271 1.385 1.794v8.206h-9v-7c0-.552-.447-1-1-1zm-23.673-12h7.673v8h-7.673c.431-1.226.673-2.578.673-4s-.242-2.774-.673-4zm9.673-20h12v8h-12zm-2 8h-10v-8h10zm26 0h-10v-8h10zm-12 2v8h-12v-8zm0 10v8h-12v-8zm9.673 8h-7.673v-8h7.673c-.431 1.226-.673 2.578-.673 4s.242 2.774.673 4zm4.327 5.264c.631.32 1.302.54 2 .649v6.087h-2zm9-9.264c0 4.411-2.691 8-6 8s-6-3.589-6-8 2.691-8 6-8 6 3.589 6 8zm-12.385-6h-8.615v-8h10v6.206c-.52.523-.983 1.127-1.385 1.794zm1.385-36v16h-36v-16zm-36 28h10v8h-8.615c-.402-.667-.865-1.271-1.385-1.794zm-11 14c0-4.411 2.691-8 6-8s6 3.589 6 8-2.691 8-6 8-6-3.589-6-8zm7 9.913c.698-.11 1.369-.329 2-.649v6.736h-2z" data-original="#000000" class="active-path" data-old_color="#000000" fill="#FFFFFF"/><path d="m27 14h2v2c0 .552.447 1 1 1h4c.553 0 1-.448 1-1v-2h2c.553 0 1-.448 1-1v-4c0-.552-.447-1-1-1h-2v-2c0-.552-.447-1-1-1h-4c-.553 0-1 .448-1 1v2h-2c-.553 0-1 .448-1 1v4c0 .552.447 1 1 1zm1-4h2c.553 0 1-.448 1-1v-2h2v2c0 .552.447 1 1 1h2v2h-2c-.553 0-1 .448-1 1v2h-2v-2c0-.552-.447-1-1-1h-2z" data-original="#000000" class="active-path" data-old_color="#000000" fill="#FFFFFF"/></g></g> </svg>
