<?xml version="1.0"?>
<svg xmlns="http://www.w3.org/2000/svg" id="Capa_1" enable-background="new 0 0 512 512" height="512px" viewBox="0 0 512 512" width="512px"><g><g><path d="m304.64 277.063h-27.488c16.713 17.87 29.322 39.619 36.305 63.739h31.438l87.332 87.332 45.07-45.07-106.001-106.001z" data-original="#000000" class="active-path" data-old_color="#000000" fill="#FFFFFF"/><path d="m221.255 114.416-75.955 43.042v131.47c0 9.302 7.567 16.869 16.869 16.869s16.869-7.567 16.869-16.869v-92.41h30v37.666c10.462 3.268 20.453 7.609 29.857 12.879h65.745v-101.494c-4.877.837-9.888 1.279-15 1.279-27.527 0-52.155-12.646-68.385-32.432z" data-original="#000000" class="active-path" data-old_color="#000000" fill="#FFFFFF"/><circle cx="356.998" cy="463.606" r="48.394" data-original="#000000" class="active-path" data-old_color="#000000" fill="#FFFFFF"/><circle cx="162.171" cy="384.531" r="48.735" data-original="#000000" class="active-path" data-old_color="#000000" fill="#FFFFFF"/><path d="m209.039 265.99v22.938c0 9.996-3.156 19.264-8.509 26.881 24.066 13.486 40.377 39.229 40.377 68.723 0 43.414-35.32 78.734-78.735 78.734s-78.735-35.32-78.735-78.734c0-29.492 16.31-55.235 40.374-68.721-5.354-7.617-8.51-16.885-8.51-26.882v-22.936c-47.162 18.714-80.598 64.795-80.598 118.54 0 70.286 57.182 127.468 127.468 127.468 70.287 0 127.469-57.182 127.469-127.468 0-53.748-33.437-99.83-80.601-118.543z" data-original="#000000" class="active-path" data-old_color="#000000" fill="#FFFFFF"/><circle cx="289.64" cy="58.424" r="58.424" data-original="#000000" class="active-path" data-old_color="#000000" fill="#FFFFFF"/></g></g> </svg>
