<?xml version="1.0"?>
<svg xmlns="http://www.w3.org/2000/svg" id="Capa_1" enable-background="new 0 0 512 512" height="512px" viewBox="0 0 512 512" width="512px"><g><g><path d="m361.67 225.383-13.86 62.13c-25.47-.576-36.61-.84-37.49-.84-22.74 0-42.3 17.48-44.74 40.21l-7.41 69.13c12.15 2.73 23.18 8.35 32.31 16.32 4.978-62.172 55.688-108.483 115.333-110.658l9.301-41.03c4.678-20.637 22.725-35.051 43.887-35.051h19.852c-4.09-18.553-16.549-33.986-33.878-41.838 33.325-27.464 20.912-82.055-21.914-91.613-28.212-6.299-56.283 11.547-62.583 39.774-5.251 23.524 6.148 46.396 25.561 57.219-12.434 8.615-21.057 21.396-24.369 36.247z" data-original="#000000" class="active-path" data-old_color="#000000" fill="#FFFFFF"/><path d="m497 285.593c8.284 0 15-6.716 15-15s-6.716-15-15-15h-38c-7.007 0-13.08 4.851-14.629 11.684l-15.053 66.402c-70.161-15.365-128.751 54.038-103.18 120.313h-42.608c-4.757-14.004-16.479-25.259-31.986-28.72-23.604-5.269-47.092 9.661-52.363 33.277v.001c-5.271 23.617 9.643 47.116 33.244 52.383 21.786 4.862 43.425-7.395 50.802-27.941h61.044c48.432 52.054 137.611 29.695 153.569-41.81 8.567-38.384-8.708-76.498-40.344-96.106l13.485-59.484h26.019zm-241.492 185.529c-1.677 7.511-9.098 12.196-16.548 10.532-7.457-1.665-12.167-9.098-10.5-16.57 1.669-7.472 9.096-12.197 16.549-10.533 7.468 1.668 12.172 9.074 10.499 16.571zm169.205-46.261c-1.805 8.085-9.822 13.177-17.907 11.372s-13.177-9.822-11.372-17.907c1.804-8.085 9.822-13.177 17.907-11.372 8.085 1.804 13.177 9.822 11.372 17.907z" data-original="#000000" class="active-path" data-old_color="#000000" fill="#FFFFFF"/><path d="m267.895 114.36c29.975-13.999 42.973-49.774 28.974-79.749-14-29.974-49.772-42.974-79.75-28.974 0 0 0 0-.001 0-29.975 13.999-42.973 49.774-28.974 79.749 14.045 30.073 49.867 42.93 79.751 28.974z" data-original="#000000" class="active-path" data-old_color="#000000" fill="#FFFFFF"/><path d="m66.022 497.815c.437 7.953 7.013 14.178 14.978 14.178h50c7.968 0 14.545-6.229 14.978-14.185l2.547-46.815h-85.07z" data-original="#000000" class="active-path" data-old_color="#000000" fill="#FFFFFF"/><path d="m147.478 170.263 46.814 36.729h77.091c8.104 0 15.305-3.938 19.793-10h33.824c8.284 0 15-6.716 15-15s-6.716-15-15-15h-34.424c-3.569-4.453-8.663-7.675-14.601-8.802-51.646-9.914-50.172-9.27-52.755-10.324-46.795-10.374-77.364-55.422-69.497-102.481-85.741 5.817-153.723 77.417-153.723 164.608v196c0 8.284 6.716 15 15 15h151c8.284 0 15-6.716 15-15v-168.258l-53.582-41.845c-6.306-4.925-8.096-13.703-4.222-20.704 4.852-8.767 16.398-11.108 24.282-4.923z" data-original="#000000" class="active-path" data-old_color="#000000" fill="#FFFFFF"/></g></g> </svg>
