<?xml version="1.0"?>
<svg xmlns="http://www.w3.org/2000/svg" id="Capa_1" enable-background="new 0 0 512 512" height="512px" viewBox="0 0 512 512" width="512px" class=""><g><g><path d="m226 446h60c5.522 0 10-4.477 10-10v-50h50c5.522 0 10-4.477 10-10v-60c0-5.523-4.478-10-10-10h-50v-50c0-5.523-4.478-10-10-10h-60c-5.523 0-10 4.477-10 10v50h-50c-5.523 0-10 4.477-10 10v60c0 5.523 4.477 10 10 10h50v50c0 5.523 4.477 10 10 10zm-50-80v-40h50c5.523 0 10-4.477 10-10v-50h40v50c0 5.523 4.478 10 10 10h50v40h-50c-5.522 0-10 4.477-10 10v50h-40v-50c0-5.523-4.477-10-10-10z" data-original="#000000" class="active-path" data-old_color="#000000" fill="#FFFFFF"/><circle cx="256" cy="502" r="10" data-original="#000000" class="active-path" data-old_color="#000000" fill="#FFFFFF"/><path d="m40 512h171c5.523 0 10-4.477 10-10s-4.477-10-10-10h-171c-11.028 0-20-8.972-20-20v-266h40v50c0 5.523 4.477 10 10 10h60c5.523 0 10-4.477 10-10v-50h232v50c0 5.523 4.478 10 10 10h60c5.522 0 10-4.477 10-10v-50h40v266c0 11.028-8.972 20-20 20h-171c-5.522 0-10 4.477-10 10s4.478 10 10 10h171c22.056 0 40-17.944 40-40v-336c0-22.056-17.944-40-40-40h-86v-56c0-22.056-17.944-40-40-40h-180c-22.056 0-40 17.944-40 40v56h-86c-22.056 0-40 17.944-40 40v336c0 22.056 17.944 40 40 40zm80-266h-40v-40h40zm312 0h-40v-40h40zm-286-206c0-11.028 8.972-20 20-20h180c11.028 0 20 8.972 20 20v56h-220zm-106 76h432c11.028 0 20 8.972 20 20v50h-472v-50c0-11.028 8.972-20 20-20z" data-original="#000000" class="active-path" data-old_color="#000000" fill="#FFFFFF"/></g></g> </svg>
