<?xml version="1.0"?>
<svg xmlns="http://www.w3.org/2000/svg" id="Capa_1" enable-background="new 0 0 511.999 511.999" height="512px" viewBox="0 0 511.999 511.999" width="512px"><g><g><g><g><g><path d="m188.908 220.259v13.8c0 4.142 3.358 7.5 7.5 7.5s7.5-3.358 7.5-7.5v-13.8c0-4.142-3.358-7.5-7.5-7.5s-7.5 3.358-7.5 7.5z" data-original="#000000" class="active-path" data-old_color="#000000" fill="#FFFFFF"/><path d="m308.09 220.259v13.8c0 4.142 3.358 7.5 7.5 7.5s7.5-3.358 7.5-7.5v-13.8c0-4.142-3.358-7.5-7.5-7.5s-7.5 3.358-7.5 7.5z" data-original="#000000" class="active-path" data-old_color="#000000" fill="#FFFFFF"/><path d="m275.768 257.836c-1.804 9.465-10.118 16.334-19.769 16.334s-17.966-6.87-19.77-16.334c-.775-4.069-4.703-6.745-8.771-5.963-4.069.775-6.739 4.702-5.963 8.771 3.15 16.53 17.661 28.527 34.504 28.527s31.354-11.997 34.503-28.527c.775-4.069-1.895-7.996-5.963-8.771-4.065-.778-7.996 1.893-8.771 5.963z" data-original="#000000" class="active-path" data-old_color="#000000" fill="#FFFFFF"/><path d="m431.649 122.828v89.8c-5.002 1.958-9.595 4.937-13.507 8.849l-24.895 24.894c-2.929 2.929-2.929 7.678 0 10.606 2.929 2.93 7.678 2.929 10.606 0l24.895-24.894c4.621-4.621 10.764-7.165 17.298-7.165 6.535 0 12.678 2.544 17.298 7.165 9.538 9.538 9.538 25.058 0 34.596l-49.242 49.242c-2.929 2.929-2.929 7.678 0 10.606 1.464 1.464 3.384 2.197 5.303 2.197s3.839-.732 5.303-2.197l6.757-6.757 7.1 10.444c1.451 2.135 3.809 3.285 6.209 3.285 1.451 0 2.919-.421 4.209-1.298 3.426-2.329 4.315-6.994 1.986-10.419l-8.708-12.809 31.687-31.687c7.454-7.453 11.558-17.363 11.558-27.904s-4.105-20.451-11.559-27.904c-7.311-7.311-16.987-11.39-27.302-11.544v-108.93c0-13.881 11.293-25.175 25.175-25.175s25.175 11.293 25.175 25.175v220.054c0 4.7-1.567 9.349-4.412 13.09l-26.473 34.816c-5.792 7.616-8.981 17.08-8.981 26.648v58.565c0 4.142 3.358 7.5 7.5 7.5s7.5-3.358 7.5-7.5v-58.565c0-6.308 2.103-12.547 5.921-17.569l26.473-34.816c4.818-6.336 7.471-14.209 7.471-22.169v-220.055c0-22.152-18.022-40.175-40.175-40.175-20.51 0-37.468 15.453-39.872 35.325-18.207-23.475-43.751-39.229-72.467-44.184-4.082-.708-7.962 2.033-8.666 6.115-.705 4.082 2.034 7.962 6.115 8.666 30.903 5.332 58.98 26.894 74.72 56.078z" data-original="#000000" class="active-path" data-old_color="#000000" fill="#FFFFFF"/><path d="m369.92 269.699-15.865 15.865c-10.973 10.972-17.016 25.561-17.016 41.078v21.841c-17.602 13.495-36.893 25.668-57.342 36.179-6.997 3.596-14.231 7.049-21.502 10.262-1.392.615-2.99.615-4.382 0-7.271-3.213-14.505-6.666-21.502-10.262-20.456-10.514-39.749-22.689-57.353-36.185v-21.834c0-15.518-6.042-30.106-17.015-41.078l-64.087-64.087c-3.97-3.97-8.584-6.906-13.507-8.828v-26.98c0-4.142-3.358-7.5-7.5-7.5s-7.5 3.358-7.5 7.5v24.282c-9.904.15-19.762 3.985-27.302 11.526-7.454 7.454-11.559 17.364-11.559 27.905s4.105 20.451 11.559 27.904l31.687 31.687-8.708 12.809c-2.329 3.425-1.439 8.09 1.986 10.419 1.291.877 2.758 1.298 4.209 1.298 2.4 0 4.758-1.15 6.209-3.285l7.1-10.444 6.757 6.757c2.929 2.929 7.678 2.929 10.606 0 2.929-2.929 2.929-7.678 0-10.606l-49.239-49.242c-9.538-9.538-9.538-25.058 0-34.596 4.621-4.621 10.764-7.165 17.298-7.165s12.677 2.544 17.298 7.165l64.087 64.087c8.139 8.139 12.622 18.961 12.622 30.472v127.534c0 4.142 3.358 7.5 7.5 7.5s7.5-3.358 7.5-7.5v-87.042c15.787 11.361 32.715 21.728 50.496 30.867 7.257 3.73 14.758 7.31 22.296 10.641 2.623 1.159 5.438 1.738 8.254 1.738 2.815 0 5.631-.58 8.253-1.738 7.539-3.331 15.04-6.911 22.297-10.641 17.774-9.137 34.699-19.502 50.484-30.862v87.036c0 4.142 3.358 7.5 7.5 7.5s7.5-3.358 7.5-7.5v-127.534c0-11.51 4.482-22.332 12.622-30.471l15.865-15.865c2.929-2.929 2.929-7.678 0-10.606-2.928-2.929-7.677-2.929-10.606-.001z" data-original="#000000" class="active-path" data-old_color="#000000" fill="#FFFFFF"/><path d="m80.35 122.832c18.542-34.386 54.369-57.509 91.366-57.509 30.099 0 58.697 13.991 78.461 38.385 1.424 1.758 3.565 2.779 5.828 2.779s4.403-1.021 5.827-2.779c16.609-20.499 39.5-33.773 64.459-37.377 4.1-.592 6.943-4.395 6.351-8.495-.592-4.099-4.393-6.943-8.495-6.351-25.876 3.737-49.772 16.45-68.143 36.088-22.252-23.778-52.514-37.25-84.289-37.25-35.68 0-69.271 17.174-91.662 45.888-2.378-19.9-19.349-35.383-39.879-35.383-22.152 0-40.174 18.022-40.174 40.175v220.054c0 7.96 2.653 15.833 7.471 22.169l26.473 34.815c3.818 5.021 5.921 11.261 5.921 17.569v58.565c0 4.142 3.358 7.5 7.5 7.5s7.5-3.358 7.5-7.5v-58.565c0-9.568-3.189-19.032-8.98-26.648l-26.473-34.815c-2.845-3.741-4.412-8.39-4.412-13.09v-220.054c0-13.882 11.293-25.175 25.175-25.175s25.175 11.293 25.175 25.175v51.676c0 4.142 3.358 7.5 7.5 7.5s7.5-3.358 7.5-7.5z" data-original="#000000" class="active-path" data-old_color="#000000" fill="#FFFFFF"/></g></g></g></g></g> </svg>
