<?xml version="1.0"?>
<svg xmlns="http://www.w3.org/2000/svg" height="512px" viewBox="0 0 64 64" width="512px"><g><g id="hospital-ambulance-service-infirmary-sanatorium"><path d="m61 27a1 1 0 0 0 1-1v-4a1 1 0 0 0 -1-1h-11v-13h1a1 1 0 0 0 1-1v-4a1 1 0 0 0 -1-1h-38a1 1 0 0 0 -1 1v4a1 1 0 0 0 1 1h1v13h-11a1 1 0 0 0 -1 1v4a1 1 0 0 0 1 1h1v31.83l-1.65 1.41a1 1 0 0 0 .65 1.76h58a1 1 0 0 0 .65-1.76l-1.65-1.41v-31.83zm-47-23h36v2h-36zm36 23h8v30.11l-1.1-.94a9 9 0 0 0 -5.86-2.17h-1.04zm-12 20a4 4 0 0 0 -3.86 3h-4.28a3.983 3.983 0 0 0 -7.72 0h-2.14v-9a3.009 3.009 0 0 1 3-3h12v6a1 1 0 0 0 1 1h8v5h-2.14a4 4 0 0 0 -3.86-3zm2 4a2 2 0 1 1 -2-2 2.006 2.006 0 0 1 2 2zm-4.62 3h-6.76a4.054 4.054 0 0 0 1.24-2h4.28a4.054 4.054 0 0 0 1.24 2zm-7.38-3a2 2 0 1 1 -2-2 2.006 2.006 0 0 1 2 2zm13-13a3.009 3.009 0 0 1 3 3v2h-7v-5zm-4-2v-1a1 1 0 0 1 2 0v1zm4.86 16h3.14a1 1 0 0 0 1-1v-10a5 5 0 0 0 -5-5v-1a3 3 0 0 0 -6 0v1h-12a5 5 0 0 0 -5 5v10a1 1 0 0 0 1 1h3.14a4.054 4.054 0 0 0 1.24 2h-7.38v-46h32v46h-7.38a4.054 4.054 0 0 0 1.24-2zm-37.86-29h10v2h-10zm10 4v27h-1.04a9 9 0 0 0 -5.86 2.17l-1.1.94v-30.11zm-8.3 33 2.7-2.31a7.007 7.007 0 0 1 4.56-1.69h38.08a7.007 7.007 0 0 1 4.56 1.69l2.7 2.31zm44.3-35v-2h10v2z" data-original="#000000" class="active-path" data-old_color="#000000" fill="#FFFFFF"/><path d="m38 14h-3v-3a1 1 0 0 0 -1-1h-4a1 1 0 0 0 -1 1v3h-3a1 1 0 0 0 -1 1v4a1 1 0 0 0 1 1h3v3a1 1 0 0 0 1 1h4a1 1 0 0 0 1-1v-3h3a1 1 0 0 0 1-1v-4a1 1 0 0 0 -1-1zm-1 4h-3a1 1 0 0 0 -1 1v3h-2v-3a1 1 0 0 0 -1-1h-3v-2h3a1 1 0 0 0 1-1v-3h2v3a1 1 0 0 0 1 1h3z" data-original="#000000" class="active-path" data-old_color="#000000" fill="#FFFFFF"/><path d="m37 28h2v2h-2z" data-original="#000000" class="active-path" data-old_color="#000000" fill="#FFFFFF"/><path d="m32.757 29.757h2v2h-2z" transform="matrix(.707 -.707 .707 .707 -11.861 32.879)" data-original="#000000" class="active-path" data-old_color="#000000" fill="#FFFFFF"/><path d="m41.243 29.757h2v2h-2z" transform="matrix(.707 -.707 .707 .707 -9.376 38.879)" data-original="#000000" class="active-path" data-old_color="#000000" fill="#FFFFFF"/><path d="m29 46h2v-2h2v-2h-2v-2h-2v2h-2v2h2z" data-original="#000000" class="active-path" data-old_color="#000000" fill="#FFFFFF"/><path d="m8 31h4v2h-4z" data-original="#000000" class="active-path" data-old_color="#000000" fill="#FFFFFF"/><path d="m8 37h4v2h-4z" data-original="#000000" class="active-path" data-old_color="#000000" fill="#FFFFFF"/><path d="m8 43h4v2h-4z" data-original="#000000" class="active-path" data-old_color="#000000" fill="#FFFFFF"/><path d="m8 48h4v2h-4z" data-original="#000000" class="active-path" data-old_color="#000000" fill="#FFFFFF"/><path d="m52 31h4v2h-4z" data-original="#000000" class="active-path" data-old_color="#000000" fill="#FFFFFF"/><path d="m52 37h4v2h-4z" data-original="#000000" class="active-path" data-old_color="#000000" fill="#FFFFFF"/><path d="m52 43h4v2h-4z" data-original="#000000" class="active-path" data-old_color="#000000" fill="#FFFFFF"/><path d="m52 48h4v2h-4z" data-original="#000000" class="active-path" data-old_color="#000000" fill="#FFFFFF"/><path d="m18 22h8v2h-8z" data-original="#000000" class="active-path" data-old_color="#000000" fill="#FFFFFF"/><path d="m18 28h8v2h-8z" data-original="#000000" class="active-path" data-old_color="#000000" fill="#FFFFFF"/><path d="m38 22h8v2h-8z" data-original="#000000" class="active-path" data-old_color="#000000" fill="#FFFFFF"/></g></g> </svg>
