<?xml version="1.0"?>
<svg xmlns="http://www.w3.org/2000/svg" id="Line_stroke_cutting_expand" height="512px" viewBox="0 0 512 512" width="512px" data-name="Line stroke cutting expand"><g><g><path d="m488 392a8 8 0 0 0 8-8v-32a8 8 0 0 0 -8-8h-16v-40h-16v40h-104v-280h104v224h16v-256h-16v16h-24v-16h-16v16h-24v-16h-16v16h-24v-24a8 8 0 0 0 -8-8h-176a8 8 0 0 0 -8 8v24h-24v-16h-16v16h-24v-16h-16v16h-24v-16h-16v120h16v-88h104v280h-104v-176h-16v176h-16a8 8 0 0 0 -8 8v32a8 8 0 0 0 8 8h8v56h-8a8 8 0 0 0 -8 8v32a8 8 0 0 0 8 8h464a8 8 0 0 0 8-8v-32a8 8 0 0 0 -8-8h-8v-56zm-312-360h160v312h-160zm-144 328h448v16h-448zm328 88h-16v-56h16zm-96 0v-56h64v56zm-80 0v-56h64v56zm-32 0v-56h16v56zm-72 0v-56h56v56zm-32-56h16v56h-16zm432 88h-448v-16h368v-16h-24v-56h56v56h-16v16h64zm-16-32h-16v-56h16z" data-original="#000000" class="active-path" data-old_color="#000000" fill="#0BD51F"/><path d="m224 112h8v8a8 8 0 0 0 8 8h32a8 8 0 0 0 8-8v-8h8a8 8 0 0 0 8-8v-32a8 8 0 0 0 -8-8h-8v-8a8 8 0 0 0 -8-8h-32a8 8 0 0 0 -8 8v8h-8a8 8 0 0 0 -8 8v32a8 8 0 0 0 8 8zm8-32h8a8 8 0 0 0 8-8v-8h16v8a8 8 0 0 0 8 8h8v16h-8a8 8 0 0 0 -8 8v8h-16v-8a8 8 0 0 0 -8-8h-8z" data-original="#000000" class="active-path" data-old_color="#000000" fill="#0BD51F"/><path d="m224 416h16v16h-16z" data-original="#000000" class="active-path" data-old_color="#000000" fill="#0BD51F"/><path d="m272 416h16v16h-16z" data-original="#000000" class="active-path" data-old_color="#000000" fill="#0BD51F"/><path d="m80 152h56a8 8 0 0 0 8-8v-56a8 8 0 0 0 -8-8h-56a8 8 0 0 0 -8 8v56a8 8 0 0 0 8 8zm8-56h40v40h-40z" data-original="#000000" class="active-path" data-old_color="#000000" fill="#0BD51F"/><path d="m72 232a8 8 0 0 0 8 8h56a8 8 0 0 0 8-8v-56a8 8 0 0 0 -8-8h-56a8 8 0 0 0 -8 8zm16-48h40v40h-40z" data-original="#000000" class="active-path" data-old_color="#000000" fill="#0BD51F"/><path d="m72 320a8 8 0 0 0 8 8h56a8 8 0 0 0 8-8v-56a8 8 0 0 0 -8-8h-56a8 8 0 0 0 -8 8zm16-48h40v40h-40z" data-original="#000000" class="active-path" data-old_color="#000000" fill="#0BD51F"/><path d="m440 88a8 8 0 0 0 -8-8h-56a8 8 0 0 0 -8 8v56a8 8 0 0 0 8 8h56a8 8 0 0 0 8-8zm-16 48h-40v-40h40z" data-original="#000000" class="active-path" data-old_color="#000000" fill="#0BD51F"/><path d="m440 176a8 8 0 0 0 -8-8h-56a8 8 0 0 0 -8 8v56a8 8 0 0 0 8 8h56a8 8 0 0 0 8-8zm-16 48h-40v-40h40z" data-original="#000000" class="active-path" data-old_color="#000000" fill="#0BD51F"/><path d="m432 256h-56a8 8 0 0 0 -8 8v56a8 8 0 0 0 8 8h56a8 8 0 0 0 8-8v-56a8 8 0 0 0 -8-8zm-8 56h-40v-40h40z" data-original="#000000" class="active-path" data-old_color="#000000" fill="#0BD51F"/><path d="m312 144h-112a8 8 0 0 0 -8 8v56a8 8 0 0 0 8 8h112a8 8 0 0 0 8-8v-56a8 8 0 0 0 -8-8zm-8 56h-96v-40h96z" data-original="#000000" class="active-path" data-old_color="#000000" fill="#0BD51F"/><path d="m240 232h-40a8 8 0 0 0 -8 8v80a8 8 0 0 0 8 8h40a8 8 0 0 0 8-8v-80a8 8 0 0 0 -8-8zm-8 80h-24v-64h24z" data-original="#000000" class="active-path" data-old_color="#000000" fill="#0BD51F"/><path d="m312 232h-40a8 8 0 0 0 -8 8v80a8 8 0 0 0 8 8h40a8 8 0 0 0 8-8v-80a8 8 0 0 0 -8-8zm-8 80h-24v-64h24z" data-original="#000000" class="active-path" data-old_color="#000000" fill="#0BD51F"/></g></g> </svg>
