<?xml version="1.0"?>
<svg xmlns="http://www.w3.org/2000/svg" id="Capa_1" enable-background="new 0 0 512 512" height="512px" viewBox="0 0 512 512" width="512px"><g><g><g><path d="m431.598 195.035c0-32.376-18.553-61.567-47.577-75.384v-109.651c0-5.523-4.477-10-10-10h-234.41c-5.523 0-10 4.477-10 10v109.653c-28.952 13.808-47.577 43.233-47.577 75.382v6.572c0 11.711 2.482 23.352 7.215 33.986-5.803 11.33-8.847 23.929-8.847 36.763 0 35.457 22.99 65.645 54.847 76.44-17.01 12.342-29.15 31.09-32.805 53.189-1.565 9.467-2.326 16.529-2.326 21.591v78.424c0 5.522 4.477 10 10 10h100.355c5.523 0 10-4.478 10-10s-4.477-10-10-10h-90.355v-68.423c0-2.683.357-8.039 2.059-18.327 5.003-30.254 31.042-52.212 61.917-52.212h21.627v8.361c0 27.604 22.556 50.063 50.28 50.063 27.725 0 50.281-22.458 50.281-50.063v-8.361h21.626c30.874 0 56.914 21.958 61.917 52.212 1.702 10.288 2.059 15.645 2.059 18.327v68.423h-90.354c-5.523 0-10 4.478-10 10s4.477 10 10 10h100.354c5.523 0 10-4.478 10-10v-78.423c0-5.061-.761-12.124-2.326-21.591-3.655-22.1-15.796-40.848-32.805-53.189 31.857-10.795 54.847-40.983 54.847-76.44 0-12.166-2.752-24.177-7.999-35.057 5.247-11.101 7.999-23.33 7.999-35.692v-6.573zm-281.987-175.035h214.41v118.51h-214.41zm11.472 313.038c-33.46 0-60.681-27.222-60.681-60.682 0-11.057 3-21.875 8.675-31.286 1.812-3.004 1.917-6.737.276-9.839-4.789-9.056-7.32-19.3-7.32-29.624v-6.572c0-21.094 10.543-40.644 27.577-52.358v107.571c0 15.898 8.72 38.036 50.265 53.224 14.248 5.209 28.357 8.149 37.131 9.645v19.922s-4.322 0-4.947 0h-50.976zm125.198 28.361c0 16.576-13.584 30.063-30.281 30.063s-30.28-13.486-30.28-30.063v-8.361h1.287c5.523 0 10-4.478 10-10v-38.556c0-5.098-3.834-9.379-8.901-9.939-20.364-2.252-78.495-15.222-78.495-44.295v-91.738h214.41v91.738c0 28.981-59.329 42.013-80.107 44.293-5.075.551-8.921 4.836-8.921 9.941v38.556c0 5.522 4.477 10 10 10h1.288zm125.317-159.792c0 10.816-2.766 21.492-7.998 30.872-1.707 3.06-1.688 6.789.05 9.831 5.199 9.103 7.947 19.492 7.947 30.046 0 33.46-27.222 60.682-60.681 60.682h-55.923v-19.895c8.913-1.485 23.33-4.425 37.892-9.65 42.265-15.168 51.136-37.326 51.136-53.244v-107.59c17.067 11.683 27.577 31.129 27.577 52.378z" data-original="#000000" class="active-path" data-old_color="#000000" fill="#FFFFFF"/><path d="m211.71 178.917c-5.523 0-10 4.477-10 10v11.243c0 5.522 4.477 10 10 10s10-4.478 10-10v-11.243c0-5.522-4.477-10-10-10z" data-original="#000000" class="active-path" data-old_color="#000000" fill="#FFFFFF"/><path d="m300.29 210.16c5.523 0 10-4.478 10-10v-11.243c0-5.523-4.477-10-10-10s-10 4.477-10 10v11.243c0 5.523 4.477 10 10 10z" data-original="#000000" class="active-path" data-old_color="#000000" fill="#FFFFFF"/><path d="m281.646 246.527c-3.889-3.92-10.221-3.947-14.142-.057-6.343 6.293-16.664 6.293-23.007 0-3.922-3.891-10.254-3.865-14.142.057-3.89 3.921-3.864 10.253.056 14.143 7.055 6.998 16.322 10.498 25.589 10.498s18.534-3.5 25.589-10.498c3.921-3.89 3.946-10.222.057-14.143z" data-original="#000000" class="active-path" data-old_color="#000000" fill="#FFFFFF"/><path d="m265.44 498.18c-1.611-3.932-5.716-6.455-9.949-6.148-4.155.301-7.749 3.222-8.896 7.225-1.146 3.998.382 8.453 3.783 10.868 3.373 2.395 7.923 2.464 11.372.185 3.925-2.594 5.496-7.791 3.69-12.13z" data-original="#000000" class="active-path" data-old_color="#000000" fill="#FFFFFF"/><path d="m285.348 69.255h-18.532v-18.378c0-5.522-4.477-10-10-10s-10 4.478-10 10v18.378h-18.532c-5.523 0-10 4.478-10 10s4.477 10 10 10h18.532v18.377c0 5.522 4.477 10 10 10s10-4.478 10-10v-18.377h18.532c5.523 0 10-4.478 10-10 0-5.523-4.477-10-10-10z" data-original="#000000" class="active-path" data-old_color="#000000" fill="#FFFFFF"/><path d="m311.128 447.009h48.51c5.523 0 10-4.477 10-10 0-5.522-4.477-10-10-10h-48.51c-5.523 0-10 4.478-10 10s4.477 10 10 10z" data-original="#000000" class="active-path" data-old_color="#000000" fill="#FFFFFF"/></g></g></g> </svg>
