<?xml version="1.0"?>
<svg xmlns="http://www.w3.org/2000/svg" id="Capa_1" enable-background="new 0 0 512 512" height="512px" viewBox="0 0 512 512" width="512px"><g><g><g><g><path d="m246.532 174.928h18.936c8.291 0 15.037-6.719 15.037-14.979l.05-20.991h21.165c8.291 0 15.037-6.719 15.037-14.979v-18.789c0-8.26-6.746-14.979-15.037-14.979l-21.215.009v-21.001c0-8.259-6.746-14.978-15.037-14.978h-18.936c-8.291 0-15.037 6.719-15.037 14.978l-.05 20.992h-21.165c-8.291 0-15.037 6.719-15.037 14.979v18.789c0 8.26 6.746 14.979 15.037 14.979l21.215-.009v21c-.001 8.26 6.745 14.979 15.037 14.979zm-15.087-50.958-21.215.009.05-18.78h21.165c8.291 0 15.037-6.719 15.037-14.979l.05-20.991 18.986-.01v21.001c0 8.26 6.746 14.979 15.037 14.979h21.165l.05-.009-.05 18.78h-21.165c-8.291 0-15.037 6.719-15.037 14.979l-.05 20.991-18.986.009v-21c0-8.26-6.746-14.979-15.037-14.979z" data-original="#000000" class="active-path" data-old_color="#000000" fill="#FFFFFF"/><path d="m415.143 0h-29.603c-4.139 0-7.494 3.355-7.494 7.494s3.355 7.494 7.494 7.494h29.603c3.12 0 5.658 2.538 5.658 5.657v48.259c0 37.966-13.222 75.019-37.231 104.333-23.684 28.916-56.738 49.103-93.075 56.839-13.198 2.811-22.777 14.59-22.777 28.01v19.576h-23.435v-19.576c0-13.42-9.579-25.199-22.777-28.01-13.785-2.935-27.092-7.672-39.6-13.988 6.543-9.821 9.545-21.747 8.303-33.692-2.699-25.961-24.45-45.488-50.632-45.488-.056 0-.113 0-.169 0-10.607.034-20.494 3.302-28.943 9.271-12.542-23.651-19.265-50.228-19.265-77.275v-48.259c0-3.12 2.538-5.657 5.658-5.657h253.925c4.139 0 7.494-3.355 7.494-7.494s-3.355-7.494-7.494-7.494h-253.926c-11.384 0-20.645 9.261-20.645 20.645v48.259c0 30.888 8.038 61.216 22.984 87.91-3.706 4.582-6.895 9.871-9.443 15.8-17.799 41.418-6.557 96.241 26.151 127.524 4.333 4.144 9.055 7.902 14.036 11.168 16.601 10.885 36.319 17.398 58.604 19.357 4.12.38 7.759-2.685 8.122-6.808.362-4.124-2.686-7.759-6.808-8.121-19.795-1.741-37.188-7.448-51.698-16.962-4.218-2.766-8.22-5.951-11.895-9.466-13.606-13.014-23.433-31.499-27.67-52.051-4.246-20.593-2.495-41.449 4.929-58.725 7.146-16.628 20.579-26.584 35.933-26.634h.12c18.475 0 33.824 13.759 35.725 32.049 1.077 10.353-2.13 20.269-9.03 27.923-6.807 7.551-16.537 11.883-26.712 11.883-2.481 0-4.883 1.03-6.59 2.828-1.695 1.786-2.595 4.216-2.469 6.669 1.649 32.081 21.1 46.864 37.127 53.617 9.113 3.839 19.075 5.785 29.609 5.785h100.029c30.612 0 55.835 24.475 56.225 54.558.194 14.916-5.466 28.973-15.936 39.579-10.472 10.608-24.448 16.451-39.353 16.451h-105.924c-14.389 0-26.095 11.706-26.095 26.094v4.899c0 6.571-5.341 12.015-11.907 12.138-3.164.089-6.148-1.175-8.489-3.471-2.47-2.425-3.887-5.771-3.887-9.183v-12.896c0-21.676 17.635-39.311 39.311-39.311h114.503c8.932 0 17.266-3.54 23.47-9.968 9.005-9.33 11.718-23.692 6.372-35.599-1.718-3.827-4.189-7.304-7.205-10.217-6.197-5.985-14.616-9.446-23.239-9.446-.032 0-71.637 0-71.637 0-4.139 0-7.494 3.355-7.494 7.494s3.355 7.494 7.494 7.494h5.819v35.255h-48.084c-29.94 0-54.299 24.359-54.299 54.299v12.896c0 7.409 3.053 14.655 8.377 19.88 5.114 5.018 11.759 7.764 18.764 7.764.167-.001.336-.002.504-.005 14.674-.275 26.613-12.443 26.613-27.124v-4.899c0-6.125 4.983-11.107 11.107-11.107h37.017v21.559c0 7.517-6.115 13.632-13.632 13.632h-6.525c-19.591 0-35.53 15.939-35.53 35.53v10.771c0 6.772 5.509 12.281 12.281 12.281h140.221c6.772 0 12.281-5.509 12.281-12.281v-10.771c0-19.591-15.939-35.53-35.531-35.53h-6.524c-7.517 0-13.632-6.115-13.632-13.632v-21.559h15.497c18.945 0 36.709-7.425 50.019-20.909 13.308-13.482 20.502-31.347 20.256-50.304-.496-38.24-32.441-69.351-71.211-69.351h-14.561v-19.576c0-6.493 4.487-11.982 10.911-13.35 39.653-8.443 75.716-30.463 101.548-62.003 26.197-31.985 40.624-72.411 40.624-113.829v-48.258c.003-11.384-9.258-20.645-20.642-20.645zm-185.848 277.663h-32.058c-8.525 0-16.529-1.551-23.79-4.61-15.752-6.636-24.948-18.303-27.401-34.728 9.291-1.195 18.082-4.95 25.381-10.798 14.723 7.871 30.529 13.712 46.957 17.209 6.424 1.368 10.911 6.858 10.911 13.35zm53.41 53.605h12.409c9.713 0 17.885 7.617 18.218 16.978.172 4.839-1.579 9.416-4.93 12.889-3.353 3.475-7.859 5.388-12.686 5.388h-13.01v-35.255zm-38.422 0h23.435v35.255h-23.435zm52.054 137.137h6.524c11.327 0 20.543 9.215 20.543 20.542v8.065h-134.808v-8.065c0-11.328 9.215-20.542 20.542-20.542h6.525c15.781 0 28.619-12.839 28.619-28.62v-21.559h23.435v21.559c0 15.781 12.839 28.62 28.62 28.62z" data-original="#000000" class="active-path" data-old_color="#000000" fill="#FFFFFF"/><circle cx="139.576" cy="179.787" r="9.901" data-original="#000000" class="active-path" data-old_color="#000000" fill="#FFFFFF"/></g></g></g></g> </svg>
